# xmcd CD database file
#
# Track frame offsets:
#	150
#	21214
#	47323
#	62017
#	100437
#	120249
#	149391
#	175784
#	190596
#	198907
#	222733
#	245392
#	274052
#	292089
#	316131
#
# Disc length: 4700 seconds
#
# Revision: 0
# Processed by: cddbd v1.5.2PL0 Copyright (c) Steve Scherf et al.
# Submitted via: CDex 1.70beta2
#
DISCID=d9125a0f
DTITLE=Kenny Wayne Sheperd - 10 Days Out
DYEAR=2007
DGENRE=Blues
TTITLE0=Prison Blues
TTITLE1=Potato Patch
TTITLE2=Honky Tonk
TTITLE3=The Thrill Is Gone
TTITLE4=Tina Marie
TTITLE5=Born In Louisana
TTITLE6=Chapel Hill Boogie
TTITLE7=Tears Came Rollin' Down
TTITLE8=Knoxville Rag
TTITLE9=Big Daddy Boogie
TTITLE10=U-Haul
TTITLE11=Red Rooster
TTITLE12=Sittin' On Top Of The World
TTITLE13=Spoonful
TTITLE14=Grindin" Man
EXTD=YEAR: 2007
EXTT0=
EXTT1=
EXTT2=
EXTT3=
EXTT4=
EXTT5=
EXTT6=
EXTT7=
EXTT8=
EXTT9=
EXTT10=
EXTT11=
EXTT12=
EXTT13=
EXTT14=
PLAYORDER=
